<?xml version="1.0" encoding="UTF-8" standalone="no"?>
<!-- Generator: Adobe Illustrator 28.0.0, SVG Export Plug-In . SVG Version: 6.00 Build 0)  -->

<svg
   version="1.1"
   id="Слой_1"
   x="0px"
   y="0px"
   viewBox="0 0 179.58 193.98"
   style="enable-background:new 0 0 179.58 193.98;"
   xml:space="preserve"
   xmlns="http://www.w3.org/2000/svg"
   xmlns:svg="http://www.w3.org/2000/svg"><defs
   id="defs3" />
<path
   d="M86.91,183.77c-5.66,0.48-11.33,0.74-17.01,0.82c-7.41,0.1-45.16-1.71-52.83-2.2c-1.88-0.12-1.38-5.37-1.35-5.8  c1.14-13.04,0.17-26.12-1.2-39.1c-1.23-11.67-2.68-23.31-3.5-35.02c-0.81-11.6,2.46-68.05,6.22-90.81  c6.24,0.8,12.61,0.74,18.88,0.14c0.89,12.41-0.24,24.84-1.28,37.21c-0.94,11.27,1.14,44.92,1.63,57.06  c0.5,12.48,0.39,24.99,0.5,37.47c0.1,10.23,0.19,25.14,0.29,36.09c0.35,0.05,0.69,0.1,1.02,0.15c2.17,0.31,33.25,1.3,48.14,0.02  C88.98,179.58,89.48,183.55,86.91,183.77z"
   id="path1" />
<path
   d="M163.38,11.49c-31.35-0.47-62.71-0.59-94.07-0.37c-8.91,0.06-10.06-0.63-18.97-0.51c-1.08,0.01-1.87,1.24-1.74,2.23  c0.14,1.17,1.14,1.76,2.23,1.74C70.03,14.33,81.46,15,100.66,15c0,0.01-0.01,0.02-0.01,0.03c-3.26,22.9-5,33.15-4.43,56.25  c0.56,23.18,2.11,46.33,2.74,69.51c0.35,12.9,0.4,25.81-0.16,38.7c-0.04,0.11-0.07,0.23-0.09,0.36c0,0.02,0,0.05,0,0.07  c6.09-0.7,12.14-0.14,18.21,0.38c0.49-22.55,0.99-45.1,1.5-67.65c0.52-23.03,2.36-33.13,2.9-56.17c0.3-12.97,0.61-25.94,0.92-38.92  c0.01-0.57-0.15-1.12-0.47-1.54c1.92,0.01,12.93-0.9,14.85-0.88c8.74,0.08,17.47,0.18,26.21,0.31c1.08,0.02,2.1-0.54,2.26-1.7  C165.22,12.78,164.47,11.5,163.38,11.49z"
   id="path2" />
<path
   d="M87.36,80.25c-3.17-1.69-6.44-3.37-9.71-5c-0.26-0.3-0.59-0.48-0.95-0.53c-0.28-2.05-0.66-4.08-1.14-6.07  c0.76-4.06,0.77-7.51,0.05-10.54c-0.84-3.51-2.81-6.47-5.28-7.93c-1.4-0.82-2.79-1.18-4.13-1.06c-0.03,0-0.06,0.01-0.09,0.01  c-1.67,0.17-3.24,0.9-4.76,1.61l-0.21,0.1c-2.37,1.11-5.67,3.05-6.9,7.12c-1.25,4.13,0.35,8.66,2.13,11.34l0.51,7.89  c-0.44,0.18-0.83,0.43-1.18,0.76c-0.45,0.42-0.86,0.89-1.25,1.35c-0.24,0.28-0.48,0.57-0.73,0.84c-1.42,1.51-3.06,2.84-4.89,3.96  c-0.35,0.21-0.61,0.54-0.74,0.93l0.02,0.01c-0.26,0.77-0.44,3.63-0.75,15.17c-0.22,8.02-0.4,17.85-0.47,24.47l-0.09,9.27l0.04,0  c-0.14,1.89,1.21,11.52,1.23,11.61c0.13,0.53,0.21,0.84,19.25-0.09c7.67-0.38,16.35-0.9,19.63-1.23c0.55-0.06,0.95-0.11,1.17-0.15  c0.77-0.16,1.28-1.1,1.28-1.88c-0.01-1.12-0.29-11.49-0.59-22.46c-0.25-9.27-0.53-19.18-0.68-25.03  C88.21,80.71,87.67,80.42,87.36,80.25z M57.26,59.86c0.35-2.13,1.83-3.81,4.51-5.13l0.36-0.18c2.11-1.05,4.29-2.13,6.32-1.1  c1.65,0.84,3.07,2.74,3.71,4.94c0.69,2.4,0.79,5.13,0.3,8.34c-2.34,0.16-4.48,0.31-6.67,0.42c-0.43,0.02-0.87,0.05-1.32,0.08  c-1.83,0.13-3.72,0.26-5.42-0.27C57.6,64.85,56.9,62.07,57.26,59.86z M65.26,130.16l0.24-0.38c0.46-0.7,0.74-1.1,1.31-1.05  c1.61,0.14,2.25,1.94,2.65,3.99c-1.72-0.04-3.44-0.1-5.16-0.17c-0.32-0.01-0.65-0.02-0.97-0.03C64.17,131.87,64.72,131,65.26,130.16  z M64.91,124.61c-0.18-0.77-0.51-1.46-1-2.1c-0.63-0.82-1.4-1.4-2.21-1.86c1.67-0.76,2.74-1.98,3.21-3.64  c0.15-0.54,0.25-1.11,0.29-1.71c1.72,0.73,3.41,0.73,4.72-0.02c0.52-0.3,0.97-0.7,1.35-1.19c0.38,0.36,0.78,0.68,1.21,0.97  c0.82,0.54,1.73,0.97,2.72,1.28c-0.45,0.72-0.75,1.52-0.88,2.38c-0.16,1.08,0.03,2.16,0.58,3.2c-1.02,0.23-1.92,0.72-2.67,1.45  c-0.65,0.64-1.15,1.42-1.54,2.43c-0.86-0.72-1.86-1.2-3-1.41c-0.5-0.1-1.01-0.12-1.51-0.07C65.75,124.36,65.32,124.46,64.91,124.61z   M74.28,129.63l0.03-0.19c0.14-0.92,0.32-2.07,0.86-2.73c1.07-1.31,3.48-0.1,4.92,0.62l0.31,0.15c0.9,0.44,1.97,0.1,2.61-0.84  c0.64-0.94,0.57-2.07-0.17-2.74c-1-0.91-1.91-1.78-2.78-2.66c-0.1-0.1-0.21-0.21-0.33-0.32c-0.5-0.48-1.07-1.02-1.01-1.57  c0.15-1.56,2.25-2.27,3.79-2.79l0.39-0.13c1.04-0.36,1.53-1.36,1.21-2.49c-0.29-1.03-1.27-1.98-2.56-1.72  c-1.49,0.31-4.33,0.62-6.58-0.88c-1.32-0.87-2.1-2.25-2.51-4.4c-0.08-0.98-0.21-1.98-0.39-2.96c-0.1-0.57-0.43-1.07-0.93-1.41  c-0.5-0.34-1.11-0.47-1.68-0.36c-1.18,0.22-1.91,1.28-1.77,2.56c0.09,0.89,0.2,1.67,0.32,2.35c0.06,0.69,0.09,1.31,0.09,1.91l0,0.34  c0.01,0.52,0.04,1.75-0.31,2c-0.11,0.08-0.5,0.18-1.64-0.62c-0.95-0.67-1.79-1.58-2.42-2.63c-0.74-1.22-2.08-1.37-3.02-0.88  c-0.87,0.45-1.54,1.54-0.97,2.86c0.91,2.09,1.24,3.95,0.97,5.37c-0.09,0.49-0.87,1.43-4.96,2.29c-0.19,0.04-0.32,0.07-0.37,0.08  c-0.88,0.28-1.53,0.98-1.68,1.81c-0.15,0.8,0.18,1.62,0.87,2.17c0.84,0.67,1.82,1.1,2.76,1.51c1.01,0.44,1.97,0.85,2.73,1.54  c0.56,0.51,0.71,1.05,0.53,1.94c-0.16,0.8-0.44,1.62-0.71,2.42c-0.12,0.35-0.24,0.7-0.35,1.05c-0.25,0.79-0.09,1.57,0.4,2.13  c-3.22-0.09-6.47-0.11-9.68,0.07c-0.03,0-0.07,0-0.1,0.01l0.4-42.32c1.96,0.04,8.85-0.22,34.05-1.93l1.1,43.52  c-3.42,0.63-7.15,0.95-11.64,0.99C74.05,131.66,74.12,130.63,74.28,129.63z"
   id="path3" />
</svg>
